<?xml version="1.0" encoding="UTF-8" standalone="no"?>
<!--
  Footrest design template — true-to-size at 1:1 mm (266 x 185mm). The grey
  shape is the footrest's REAL printable design face (the app clips artwork to exactly
  this outline). Load with the Footrest assembly kind at Scale 100%, Offset 0/0 and it
  lands centered on the face without adjustment.

  GENERATED by scripts/gen-templates.mjs from public/stl/footrest.3mf — do not
  hand-edit; re-run "npx vite-node scripts/gen-templates.mjs" to regenerate.

  Orientation: BACK is the seat-mount edge (carries the 4 mounting slots — two
  through-holes plus the two notches in the BACK corners; all read as gaps in the
  grey); FRONT is the curved-lip edge. If your finished design prints mirrored
  front-to-back, toggle "Flip V" in the Fit panel.

  Grey = printable surface. The gaps punched in it (the four mounting slots) are
  real holes — nothing prints there, so keep artwork clear of them. All blue text
  is guide labels (ignored by the cut pipeline); no need to delete before export.
-->
<svg width="266mm" height="185mm" viewBox="0 0 266 185" version="1.1"
     xmlns="http://www.w3.org/2000/svg">
  <path d="M0 50.72 L25 50.72 L25 155 L25.21 158.5 L25.82 161.96 L26.83 165.32 L28.23 168.54 L29.99 171.57 L32.1 174.38 L34.52 176.92 L37.22 179.16 L40.16 181.07 L43.31 182.63 L46.61 183.8 L46.39 183.62 L46.18 183.42 L45.98 183.21 L32.59 168.35 L31.85 167.27 L31.42 166.04 L31.32 164.74 L31.55 163.45 L32.12 162.28 L32.96 161.28 L34.04 160.54 L35.27 160.11 L36.57 160.01 L37.85 160.24 L39.03 160.81 L40.02 161.65 L53.41 176.52 L54.14 177.57 L54.57 178.78 L54.69 180.06 L54.47 181.33 L53.94 182.5 L53.13 183.5 L52.09 184.25 L50.89 184.72 L52.26 184.87 L53.63 184.97 L55 185 L211 185 L212.37 184.97 L213.74 184.87 L215.11 184.72 L213.91 184.25 L212.87 183.5 L212.06 182.5 L211.53 181.33 L211.31 180.06 L211.43 178.78 L211.86 177.57 L212.59 176.52 L225.98 161.65 L226.97 160.81 L228.15 160.24 L229.43 160.01 L230.73 160.11 L231.96 160.54 L233.04 161.28 L233.88 162.28 L234.45 163.45 L234.68 164.74 L234.58 166.04 L234.15 167.27 L233.41 168.35 L220.02 183.21 L219.82 183.42 L219.61 183.62 L219.39 183.8 L222.69 182.63 L225.84 181.07 L228.78 179.16 L231.48 176.92 L233.9 174.38 L236.01 171.57 L237.77 168.54 L239.17 165.32 L240.18 161.96 L240.79 158.5 L241 155 L241 50.72 L266 50.72 L266 29 L265.79 25.5 L265.16 22.06 L264.12 18.72 L262.68 15.52 L260.87 12.53 L258.71 9.77 L256.23 7.29 L253.47 5.13 L250.48 3.32 L247.28 1.88 L243.94 0.84 L240.5 0.21 L237 0 L29 0 L25.5 0.21 L22.06 0.84 L18.72 1.88 L15.52 3.32 L12.53 5.13 L9.77 7.29 L7.29 9.77 L5.13 12.53 L3.32 15.52 L1.88 18.72 L0.84 22.06 L0.21 25.5 L0 29 Z M180.58 178.82 L180.68 180.12 L180.45 181.41 L179.88 182.59 L179.04 183.58 L177.96 184.32 L176.73 184.75 L175.43 184.86 L174.15 184.62 L172.97 184.06 L171.98 183.21 L158.59 168.35 L157.85 167.27 L157.42 166.04 L157.32 164.74 L157.55 163.45 L158.12 162.28 L158.96 161.28 L160.04 160.54 L161.27 160.11 L162.57 160.01 L163.85 160.24 L165.03 160.81 L166.02 161.65 L179.41 176.52 L180.15 177.59 Z M102.15 160.24 L103.43 160.01 L104.73 160.11 L105.96 160.54 L107.04 161.28 L107.88 162.28 L108.45 163.45 L108.68 164.74 L108.58 166.04 L108.15 167.27 L107.41 168.35 L94.02 183.21 L93.03 184.06 L91.85 184.62 L90.57 184.86 L89.27 184.75 L88.04 184.32 L86.96 183.58 L86.12 182.59 L85.55 181.41 L85.32 180.12 L85.42 178.82 L85.85 177.59 L86.59 176.52 L99.98 161.65 L100.97 160.81 Z" fill="#bcbcbc" fill-rule="evenodd" />
  <text x="133" y="20" text-anchor="middle" font-family="sans-serif" font-size="8"
        fill="#1a4f8f">▴ FRONT (lip edge)</text>
  <text x="133" y="150" text-anchor="middle" font-family="sans-serif" font-size="8"
        fill="#1a4f8f">BACK (seat-mount edge) ▾</text>
</svg>
