<?xml version="1.0" encoding="UTF-8" standalone="no"?>
<!--
  Footrest design template — true-to-size at 1:1 mm (266 x 185mm). The grey
  shape is the footrest's REAL printable design face (the app clips artwork to exactly
  this outline). Load with the Footrest assembly kind at Scale 100%, Offset 0/0 and it
  lands centered on the face without adjustment.

  GENERATED by scripts/gen-templates.mjs from public/stl/footrest.3mf — do not
  hand-edit; re-run "npx vite-node scripts/gen-templates.mjs" to regenerate.

  Orientation: BACK is the seat-mount edge (carries the 4 mounting slots — two
  through-holes plus the two notches in the BACK corners; all read as gaps in the
  grey); FRONT is the curved-lip edge. If your finished design prints mirrored
  front-to-back, toggle "Flip V" in the Fit panel.

  Grey = printable surface. The gaps punched in it (the four mounting slots) are
  real holes — nothing prints there, so keep artwork clear of them. All blue text
  is guide labels (ignored by the cut pipeline); no need to delete before export.
-->
<svg width="266mm" height="185mm" viewBox="0 0 266 185" version="1.1"
     xmlns="http://www.w3.org/2000/svg">
  <path d="M263.2 16.57 L262.94 16.04 L262.68 15.52 L262.4 15.01 L262.11 14.5 L261.82 14 L261.51 13.5 L261.19 13.01 L260.87 12.53 L260.53 12.05 L260.18 11.58 L259.83 11.12 L259.46 10.66 L259.09 10.21 L258.71 9.77 L258.32 9.34 L257.91 8.91 L257.51 8.49 L257.09 8.09 L256.66 7.68 L256.23 7.29 L255.79 6.91 L255.34 6.54 L254.88 6.17 L254.42 5.82 L253.95 5.47 L253.47 5.13 L252.99 4.81 L252.5 4.49 L252 4.18 L251.5 3.89 L250.99 3.6 L250.48 3.32 L249.96 3.06 L249.43 2.8 L248.9 2.55 L248.37 2.32 L247.83 2.1 L247.28 1.88 L246.74 1.68 L246.18 1.49 L245.63 1.31 L245.07 1.14 L244.51 0.99 L243.94 0.84 L243.37 0.71 L242.8 0.59 L242.23 0.48 L241.65 0.38 L241.07 0.29 L240.5 0.21 L239.92 0.15 L239.33 0.09 L238.75 0.05 L238.17 0.02 L237.58 0.01 L237 0 L29 0 L28.42 0.01 L27.83 0.02 L27.25 0.05 L26.67 0.09 L26.08 0.15 L25.5 0.21 L24.93 0.29 L24.35 0.38 L23.77 0.48 L23.2 0.59 L22.63 0.71 L22.06 0.84 L21.49 0.99 L20.93 1.14 L20.37 1.31 L19.82 1.49 L19.26 1.68 L18.72 1.88 L18.17 2.1 L17.63 2.32 L17.1 2.55 L16.57 2.8 L16.04 3.06 L15.52 3.32 L15.01 3.6 L14.5 3.89 L14 4.18 L13.5 4.49 L13.01 4.81 L12.53 5.13 L12.05 5.47 L11.58 5.82 L11.12 6.17 L10.66 6.54 L10.21 6.91 L9.77 7.29 L9.34 7.68 L8.91 8.09 L8.49 8.49 L8.09 8.91 L7.68 9.34 L7.29 9.77 L6.91 10.21 L6.54 10.66 L6.17 11.12 L5.82 11.58 L5.47 12.05 L5.13 12.53 L4.81 13.01 L4.49 13.5 L4.18 14 L3.89 14.5 L3.6 15.01 L3.32 15.52 L3.06 16.04 L2.8 16.57 L2.55 17.1 L2.32 17.63 L2.1 18.17 L1.88 18.72 L1.68 19.26 L1.49 19.82 L1.31 20.37 L1.14 20.93 L0.99 21.49 L0.84 22.06 L0.71 22.63 L0.59 23.2 L0.48 23.77 L0.38 24.35 L0.29 24.93 L0.21 25.5 L0.15 26.08 L0.09 26.67 L0.05 27.25 L0.02 27.83 L0.01 28.42 L0 29 L0 50.72 L25 50.72 L25 155 L25.01 155.59 L25.02 156.19 L25.05 156.78 L25.09 157.37 L25.15 157.97 L25.21 158.56 L25.29 159.15 L25.38 159.73 L25.48 160.32 L25.59 160.9 L25.71 161.49 L25.84 162.06 L25.99 162.64 L26.15 163.21 L26.31 163.78 L26.49 164.35 L26.68 164.91 L26.89 165.47 L27.1 166.03 L27.32 166.58 L27.56 167.12 L27.8 167.66 L28.06 168.2 L28.33 168.73 L28.6 169.26 L28.89 169.78 L29.19 170.29 L29.5 170.8 L29.81 171.3 L30.14 171.8 L30.48 172.29 L30.83 172.77 L31.18 173.24 L31.55 173.71 L31.93 174.17 L32.31 174.63 L32.7 175.07 L33.1 175.51 L33.52 175.94 L33.93 176.36 L34.36 176.77 L34.8 177.18 L35.24 177.57 L35.69 177.96 L36.15 178.34 L36.62 178.71 L37.09 179.07 L37.57 179.42 L38.06 179.76 L38.55 180.09 L39.05 180.41 L39.56 180.72 L40.07 181.02 L40.59 181.31 L41.11 181.59 L41.64 181.86 L42.17 182.12 L42.71 182.37 L43.26 182.61 L43.81 182.83 L44.36 183.05 L44.92 183.26 L45.48 183.45 L46.05 183.63 L46.61 183.8 L46.45 183.67 L46.28 183.52 L46.13 183.37 L45.98 183.21 L32.59 168.35 L32.44 168.16 L32.29 167.97 L32.15 167.78 L32.02 167.58 L31.9 167.37 L31.8 167.15 L31.7 166.93 L31.61 166.71 L31.53 166.48 L31.47 166.25 L31.41 166.02 L31.37 165.78 L31.34 165.54 L31.32 165.31 L31.31 165.07 L31.31 164.83 L31.33 164.59 L31.35 164.35 L31.39 164.11 L31.44 163.88 L31.5 163.64 L31.57 163.41 L31.65 163.19 L31.74 162.97 L31.84 162.75 L31.96 162.54 L32.08 162.33 L32.21 162.13 L32.36 161.94 L32.51 161.75 L32.67 161.57 L32.84 161.4 L33.01 161.24 L33.2 161.09 L33.39 160.94 L33.59 160.81 L33.79 160.68 L34 160.56 L34.22 160.46 L34.44 160.36 L34.66 160.28 L34.89 160.21 L35.12 160.14 L35.35 160.09 L35.59 160.05 L35.83 160.02 L36.07 160.01 L36.31 160 L36.54 160.01 L36.77 160.02 L37 160.05 L37.23 160.09 L37.46 160.13 L37.69 160.19 L37.91 160.26 L38.13 160.34 L38.34 160.43 L38.55 160.53 L38.76 160.64 L38.96 160.76 L39.15 160.89 L39.34 161.02 L39.52 161.17 L39.7 161.32 L39.86 161.49 L40.02 161.65 L53.41 176.52 L53.56 176.7 L53.71 176.89 L53.85 177.08 L53.98 177.29 L54.1 177.5 L54.2 177.71 L54.3 177.93 L54.39 178.15 L54.47 178.38 L54.53 178.61 L54.59 178.84 L54.63 179.08 L54.66 179.32 L54.68 179.55 L54.69 179.79 L54.69 180.03 L54.67 180.27 L54.65 180.51 L54.61 180.75 L54.56 180.98 L54.5 181.22 L54.43 181.44 L54.35 181.67 L54.26 181.89 L54.16 182.11 L54.05 182.32 L53.92 182.53 L53.79 182.73 L53.65 182.92 L53.5 183.1 L53.34 183.28 L53.17 183.45 L52.99 183.62 L52.81 183.77 L52.62 183.92 L52.42 184.05 L52.22 184.18 L52.01 184.29 L51.79 184.4 L51.57 184.5 L51.35 184.58 L51.12 184.65 L50.89 184.72 L51.47 184.79 L52.06 184.86 L52.65 184.91 L53.23 184.95 L53.82 184.98 L54.41 184.99 L55 185 L211 185 L211.59 184.99 L212.18 184.98 L212.77 184.95 L213.35 184.91 L213.94 184.86 L214.53 184.79 L215.11 184.72 L214.88 184.65 L214.65 184.58 L214.43 184.5 L214.21 184.4 L213.99 184.29 L213.78 184.18 L213.58 184.05 L213.38 183.92 L213.19 183.77 L213.01 183.62 L212.83 183.45 L212.66 183.28 L212.5 183.1 L212.35 182.92 L212.21 182.73 L212.08 182.53 L211.95 182.32 L211.84 182.11 L211.74 181.89 L211.65 181.67 L211.57 181.44 L211.5 181.22 L211.44 180.98 L211.39 180.75 L211.35 180.51 L211.33 180.27 L211.31 180.03 L211.31 179.79 L211.32 179.55 L211.34 179.32 L211.37 179.08 L211.41 178.84 L211.47 178.61 L211.53 178.38 L211.61 178.15 L211.7 177.93 L211.8 177.71 L211.9 177.5 L212.02 177.29 L212.15 177.08 L212.29 176.89 L212.44 176.7 L212.59 176.52 L225.98 161.65 L226.14 161.49 L226.3 161.32 L226.48 161.17 L226.66 161.02 L226.85 160.89 L227.04 160.76 L227.24 160.64 L227.45 160.53 L227.66 160.43 L227.87 160.34 L228.09 160.26 L228.31 160.19 L228.54 160.13 L228.77 160.09 L229 160.05 L229.23 160.02 L229.46 160.01 L229.69 160 L229.93 160.01 L230.17 160.02 L230.41 160.05 L230.65 160.09 L230.88 160.14 L231.11 160.21 L231.34 160.28 L231.56 160.36 L231.78 160.46 L232 160.56 L232.21 160.68 L232.41 160.81 L232.61 160.94 L232.8 161.09 L232.99 161.24 L233.16 161.4 L233.33 161.57 L233.49 161.75 L233.64 161.94 L233.79 162.13 L233.92 162.33 L234.04 162.54 L234.16 162.75 L234.26 162.97 L234.35 163.19 L234.43 163.41 L234.5 163.64 L234.56 163.88 L234.61 164.11 L234.65 164.35 L234.67 164.59 L234.69 164.83 L234.69 165.07 L234.68 165.31 L234.66 165.54 L234.63 165.78 L234.59 166.02 L234.53 166.25 L234.47 166.48 L234.39 166.71 L234.3 166.93 L234.2 167.15 L234.1 167.37 L233.98 167.58 L233.85 167.78 L233.71 167.97 L233.56 168.16 L233.41 168.35 L220.02 183.21 L219.87 183.37 L219.72 183.52 L219.55 183.67 L219.39 183.8 L219.95 183.63 L220.52 183.45 L221.08 183.26 L221.64 183.05 L222.19 182.83 L222.74 182.61 L223.29 182.37 L223.83 182.12 L224.36 181.86 L224.89 181.59 L225.41 181.31 L225.93 181.02 L226.44 180.72 L226.95 180.41 L227.45 180.09 L227.94 179.76 L228.43 179.42 L228.91 179.07 L229.38 178.71 L229.85 178.34 L230.31 177.96 L230.76 177.57 L231.2 177.18 L231.64 176.77 L232.07 176.36 L232.48 175.94 L232.9 175.51 L233.3 175.07 L233.69 174.63 L234.07 174.17 L234.45 173.71 L234.82 173.24 L235.17 172.77 L235.52 172.29 L235.86 171.8 L236.19 171.3 L236.5 170.8 L236.81 170.29 L237.11 169.78 L237.4 169.26 L237.67 168.73 L237.94 168.2 L238.2 167.66 L238.44 167.12 L238.68 166.58 L238.9 166.03 L239.11 165.47 L239.32 164.91 L239.51 164.35 L239.69 163.78 L239.85 163.21 L240.01 162.64 L240.16 162.06 L240.29 161.49 L240.41 160.9 L240.52 160.32 L240.62 159.73 L240.71 159.15 L240.79 158.56 L240.85 157.97 L240.91 157.37 L240.95 156.78 L240.98 156.19 L240.99 155.59 L241 155 L241 50.72 L266 50.72 L266 29 L265.99 28.42 L265.98 27.83 L265.95 27.25 L265.91 26.67 L265.85 26.08 L265.79 25.5 L265.71 24.93 L265.62 24.35 L265.52 23.77 L265.41 23.2 L265.29 22.63 L265.16 22.06 L265.01 21.49 L264.86 20.93 L264.69 20.37 L264.51 19.82 L264.32 19.26 L264.12 18.72 L263.9 18.17 L263.68 17.63 L263.45 17.1 Z M107.16 161.4 L107.33 161.57 L107.49 161.75 L107.64 161.94 L107.79 162.13 L107.92 162.33 L108.04 162.54 L108.16 162.75 L108.26 162.97 L108.35 163.19 L108.43 163.41 L108.5 163.64 L108.56 163.88 L108.61 164.11 L108.65 164.35 L108.67 164.59 L108.69 164.83 L108.69 165.07 L108.68 165.31 L108.66 165.54 L108.63 165.78 L108.59 166.02 L108.53 166.25 L108.47 166.48 L108.39 166.71 L108.3 166.93 L108.2 167.15 L108.1 167.37 L107.98 167.58 L107.85 167.78 L107.71 167.97 L107.56 168.16 L107.41 168.35 L94.02 183.21 L93.86 183.38 L93.68 183.55 L93.5 183.71 L93.31 183.86 L93.12 184 L92.91 184.13 L92.7 184.25 L92.49 184.36 L92.27 184.46 L92.04 184.55 L91.82 184.63 L91.58 184.7 L91.35 184.75 L91.11 184.8 L90.87 184.83 L90.63 184.85 L90.39 184.86 L90.15 184.86 L89.91 184.85 L89.67 184.82 L89.43 184.78 L89.19 184.74 L88.96 184.68 L88.73 184.61 L88.5 184.52 L88.28 184.43 L88.06 184.33 L87.84 184.21 L87.64 184.09 L87.44 183.95 L87.24 183.81 L87.05 183.66 L86.87 183.5 L86.7 183.33 L86.54 183.15 L86.39 182.96 L86.24 182.77 L86.1 182.57 L85.98 182.36 L85.86 182.15 L85.76 181.93 L85.66 181.71 L85.58 181.48 L85.51 181.25 L85.44 181.02 L85.39 180.78 L85.36 180.55 L85.33 180.31 L85.31 180.06 L85.31 179.82 L85.32 179.58 L85.34 179.34 L85.37 179.1 L85.41 178.86 L85.46 178.63 L85.53 178.39 L85.61 178.17 L85.69 177.94 L85.79 177.72 L85.9 177.5 L86.02 177.29 L86.15 177.09 L86.29 176.89 L86.44 176.7 L86.59 176.52 L99.98 161.65 L100.14 161.49 L100.3 161.32 L100.48 161.17 L100.66 161.02 L100.85 160.89 L101.04 160.76 L101.24 160.64 L101.45 160.53 L101.66 160.43 L101.87 160.34 L102.09 160.26 L102.31 160.19 L102.54 160.13 L102.77 160.09 L103 160.05 L103.23 160.02 L103.46 160.01 L103.69 160 L103.93 160.01 L104.17 160.02 L104.41 160.05 L104.65 160.09 L104.88 160.14 L105.11 160.21 L105.34 160.28 L105.56 160.36 L105.78 160.46 L106 160.56 L106.21 160.68 L106.41 160.81 L106.61 160.94 L106.8 161.09 L106.99 161.24 Z M165.7 161.32 L165.86 161.49 L166.02 161.65 L179.41 176.52 L179.56 176.7 L179.71 176.89 L179.85 177.09 L179.98 177.29 L180.1 177.5 L180.21 177.72 L180.31 177.94 L180.39 178.17 L180.47 178.39 L180.54 178.63 L180.59 178.86 L180.63 179.1 L180.66 179.34 L180.68 179.58 L180.69 179.82 L180.69 180.06 L180.67 180.31 L180.64 180.55 L180.61 180.78 L180.56 181.02 L180.49 181.25 L180.42 181.48 L180.34 181.71 L180.24 181.93 L180.14 182.15 L180.02 182.36 L179.9 182.57 L179.76 182.77 L179.61 182.96 L179.46 183.15 L179.3 183.33 L179.13 183.5 L178.95 183.66 L178.76 183.81 L178.56 183.95 L178.36 184.09 L178.16 184.21 L177.94 184.33 L177.72 184.43 L177.5 184.52 L177.27 184.61 L177.04 184.68 L176.81 184.74 L176.57 184.78 L176.33 184.82 L176.09 184.85 L175.85 184.86 L175.61 184.86 L175.37 184.85 L175.13 184.83 L174.89 184.8 L174.65 184.75 L174.42 184.7 L174.18 184.63 L173.96 184.55 L173.73 184.46 L173.51 184.36 L173.3 184.25 L173.09 184.13 L172.88 184 L172.69 183.86 L172.5 183.71 L172.32 183.55 L172.14 183.38 L171.98 183.21 L158.59 168.35 L158.44 168.16 L158.29 167.97 L158.15 167.78 L158.02 167.58 L157.9 167.37 L157.8 167.15 L157.7 166.93 L157.61 166.71 L157.53 166.48 L157.47 166.25 L157.41 166.02 L157.37 165.78 L157.34 165.54 L157.32 165.31 L157.31 165.07 L157.31 164.83 L157.33 164.59 L157.35 164.35 L157.39 164.11 L157.44 163.88 L157.5 163.64 L157.57 163.41 L157.65 163.19 L157.74 162.97 L157.84 162.75 L157.96 162.54 L158.08 162.33 L158.21 162.13 L158.36 161.94 L158.51 161.75 L158.67 161.57 L158.84 161.4 L159.01 161.24 L159.2 161.09 L159.39 160.94 L159.59 160.81 L159.79 160.68 L160 160.56 L160.22 160.46 L160.44 160.36 L160.66 160.28 L160.89 160.21 L161.12 160.14 L161.35 160.09 L161.59 160.05 L161.83 160.02 L162.07 160.01 L162.31 160 L162.54 160.01 L162.77 160.02 L163 160.05 L163.23 160.09 L163.46 160.13 L163.69 160.19 L163.91 160.26 L164.13 160.34 L164.34 160.43 L164.55 160.53 L164.76 160.64 L164.96 160.76 L165.15 160.89 L165.34 161.02 L165.52 161.17 Z" fill="#bcbcbc" fill-rule="evenodd" />
  <text x="133" y="20" text-anchor="middle" font-family="sans-serif" font-size="8"
        fill="#1a4f8f">▴ FRONT (lip edge)</text>
  <text x="133" y="150" text-anchor="middle" font-family="sans-serif" font-size="8"
        fill="#1a4f8f">BACK (seat-mount edge) ▾</text>
</svg>
