<?xml version="1.0" encoding="UTF-8" standalone="no"?>
<!--
  Right side design zone template (chair-body) — true-to-size at 1:1 mm (225.2 x 235.2mm).
  The grey shape is the zone's unwrapped printable surface; the app clips artwork to exactly this
  outline and wraps it back onto the 3D part. Load it at Scale 100%, Offset 0/0 and it lands
  centered on the zone without adjustment. Gaps punched in the grey are real holes.

  GENERATED by scripts/bake-zones.mjs - do not hand-edit; re-run the bake to regenerate.
-->
<svg width="225.2mm" height="235.2mm" viewBox="0 0 225.2 235.2" version="1.1"
     xmlns="http://www.w3.org/2000/svg">
  <path d="M116.77 34.97 L114.99 35.85 L118.19 45.62 L114.74 36.12 L117.56 45.78 L119.83 55.59 L121.7 65.49 L123.16 75.45 L124.22 85.46 L124.88 95.52 L125.13 105.59 L124.98 115.66 L124.43 125.71 L123.47 135.74 L122.1 145.71 L121.13 150.45 L119.75 155.09 L117.95 159.58 L115.76 163.9 L113.2 168.01 L110.29 171.87 L107.04 175.45 L103.49 178.73 L99.65 181.67 L95.57 184.26 L91.27 186.48 L86.8 188.3 L82.17 189.71 L77.43 190.71 L36.37 197.26 L36.41 197.83 L28.46 198.96 L28.52 199.45 L11.3 201.36 L11.34 201.84 L5.52 202.41 L5.56 202.86 L2.63 203.14 L0 203.8 L0.8 213.15 L0.89 224.14 L0.18 228.64 L29.26 228.82 L31.82 232.46 L37 235.2 L40.65 234.81 L201.79 234.72 L206.58 227.96 L224.3 210.25 L224.97 207.74 L225.08 0.27 L224.46 0.06 Z M118.97 216.2 L117.82 213.46 L117.66 211.93 L117.72 198.62 L118.62 195.89 L119.73 194.38 L121.17 193.18 L117.16 193.18 L117.14 174.02 L117.74 171.05 L119.37 168.61 L121.8 166.97 L124.77 166.36 L130.18 166.6 L135.59 166.37 L138.56 166.97 L140.99 168.61 L142.62 171.04 L143.22 174.01 L143.22 177.66 L144.16 177.7 L144.17 165.87 L151.56 165.88 L151.56 170.88 L153.24 170.88 L155.5 165.88 L163.6 165.88 L160.18 173.51 L161.66 176.11 L162.06 178.88 L164.94 177.86 L167.46 177.79 L170.12 178.27 L171.35 178.86 L173.15 180.39 L174.43 182.38 L175 184.27 L175.03 186.27 L174.49 188.4 L173.22 190.44 L171.41 191.96 L172.01 191.96 L172.01 216.46 L171.51 217.03 L169.46 218.68 L166.39 219.54 L140.21 219.56 L137.52 219.04 L136.31 218.42 L134.61 216.92 L132.05 218.85 L130.5 219.38 L125.3 219.57 L122.33 218.97 L121.03 218.26 Z M140.52 58.57 L143.31 57.83 L146.16 58.28 L148.58 59.85 L150.14 62.27 L151.91 73.86 L152.94 84.09 L153.86 104.63 L153.26 125.18 L153.03 126.62 L151.69 129.17 L149.42 130.95 L146.63 131.66 L143.78 131.17 L141.38 129.57 L139.85 127.13 L139.5 125.72 L140 104.74 L139.74 94.98 L139.13 85.24 L136.75 64.39 L137.49 61.6 L138.28 60.39 Z" fill="#bcbcbc" fill-rule="evenodd" />

  <text x="112.6" y="12" text-anchor="middle" font-family="sans-serif"
        font-size="8" fill="#1a4f8f">Right side</text>
</svg>
