<?xml version="1.0" encoding="UTF-8" standalone="no"?>
<!DOCTYPE svg PUBLIC "-//W3C//DTD SVG 1.1//EN" "http://www.w3.org/Graphics/SVG/1.1/DTD/svg11.dtd">
<svg width="100%" height="100%" viewBox="0 0 795 795" version="1.1" xmlns="http://www.w3.org/2000/svg" xmlns:xlink="http://www.w3.org/1999/xlink" xml:space="preserve" xmlns:serif="http://www.serif.com/" style="fill-rule:evenodd;clip-rule:evenodd;stroke-linecap:round;stroke-linejoin:round;stroke-miterlimit:1.5;">
    <circle cx="397.063" cy="397.063" r="397.063" style="fill:rgb(192,67,83);"/>
    <g>
        <g>
            <path d="M392.903,89.803C407.407,88.501 421.723,94.53 435.682,97.486C443.816,99.209 452.222,99.98 460.234,102.227C466.714,104.043 473.231,106.951 479.776,108.322C485.361,109.491 491.868,108.884 497.616,109.337C517.011,110.864 537.015,111.684 556.207,114.815C569.181,116.932 579.939,120.55 590.735,128.162C602.506,136.461 612.853,147.364 623.021,157.512C635.87,170.529 648.895,183.369 662.097,196.028C674.469,207.652 687.069,219.026 699.896,230.148C712.208,240.96 726.476,252.003 735.972,265.43C747.931,282.337 750.372,313.1 746.808,332.941C745.475,340.357 743.052,346.725 739.703,353.464C733.816,365.314 726.672,376.38 719.878,387.714C712.465,400.24 705.167,412.833 697.981,425.491C684.833,448.46 670.199,479.039 654.831,499.568C648.24,508.374 638.813,516.305 629.736,522.469C620.638,528.646 609.533,533.094 598.391,530.68C576.906,526.029 551.766,489.059 540.746,471.075C534.683,476.958 527.955,481.326 520.731,485.655C524.614,516.597 531.287,538.575 545.453,566.495C552.569,566.667 559.594,567.006 566.584,568.465C576.809,570.599 586.532,574.672 592.321,583.857C600.645,597.06 607.834,635.742 604.001,650.927C600.837,663.461 588.725,680.58 577.723,687.046L576.534,686.461C575.884,684.864 575.227,683.386 574.355,681.897C570.641,683.896 567.24,688.118 564.019,690.952C556.411,697.648 546.813,698.264 537.501,700.99L536.31,703.825L534.922,704.289C531.765,703.407 532.49,702.111 530.243,700.505C528.396,699.185 523.329,698.335 520.997,697.537C509.578,693.622 502.727,687.457 494.283,679.229C492.79,680.103 492.39,683.198 490.882,684.727C484.299,682.358 476.134,670.228 471.475,664.93C446.716,663.308 424.126,653.284 402.21,642.412C400.949,641.712 398.394,640.14 397.009,640.188C396.853,640.193 361.426,655.225 357.13,656.709C352.06,658.481 346.896,659.919 341.64,661.023C336.385,662.127 331.079,662.887 325.724,663.305C323.045,667.347 320.114,671.198 316.934,674.86C313.754,678.522 310.351,681.961 306.725,685.181L302.524,676.701C295.697,686.56 286.902,692.522 275.864,696.913C273.139,697.997 268.668,699.152 266.331,700.794C264.447,702.119 265.048,703.493 262.351,704.505C259.246,703.685 260.934,702.576 259.099,701.132C258.126,700.366 254.475,699.753 253.064,699.337C239.654,695.387 232.002,690.677 222.604,680.327C221.512,680.909 221.977,686.571 220.923,688.269C218.5,688.098 217.174,686.872 215.439,685.284C201.971,672.962 190.531,657.894 189.901,639.069C189.595,629.923 195.491,599.39 198.935,590.55C200.697,586.029 203.164,581.831 206.583,578.358C216.974,567.801 234.276,566.776 248.128,566.442C263.608,540.269 269.125,514.477 271.725,484.562C265.537,481.053 260.094,476.658 254.583,472.19C251.981,476.238 249.328,480.253 246.626,484.236C236.93,498.456 213.858,527.769 195.819,530.683C183.157,532.728 171.384,527.488 161.49,520.109C153.381,514.062 145.075,506.746 139.089,498.552C131.329,487.928 125.235,476.176 118.695,464.794C107.639,445.574 96.695,426.29 85.858,406.944C75.644,388.889 63.444,371.702 54.241,353.137C50.586,345.762 47.892,338.93 46.771,330.741C44.192,311.909 46.365,280.413 58.902,264.909C67.593,254.162 78.587,244.89 88.857,235.694C101.564,224.446 114.115,213.026 126.509,201.436C149.829,179.543 171.621,155.413 195.737,134.491C201.647,129.362 208.277,124.263 215.393,120.929C241.291,108.792 284.885,111.836 313.649,107.599C321.632,106.423 329.3,103.349 337.092,101.322C344.306,99.447 351.776,98.624 359.045,96.985C370.476,94.411 381.116,90.732 392.903,89.803ZM365.979,495.125C378.398,503.236 394.405,504.689 408.766,501.756C411.464,501.193 414.137,500.532 416.787,499.775C423.672,496.983 427.98,492.415 432.42,486.687C419.501,478.703 406.734,471.534 396.288,460.331C386.273,472.383 371.928,479.665 358.73,487.749C360.952,490.446 363.424,492.758 365.979,495.125ZM464.789,643.4C464.11,630.013 466.46,620.194 471.134,607.705L471.296,605.214C473.708,595.591 477.268,587.451 483.848,579.963C499.537,566.013 516.137,566.604 535.938,566.646C522.428,537.821 518.357,521.267 513.584,489.969L506.485,491.584C503.651,491.981 500.819,492.446 497.963,492.659C495.512,499.106 492.615,504.995 485.925,507.931C481.091,510.052 476.061,509.688 470.937,509.399C467.01,516.565 462.986,521.885 456.538,526.977C454.375,528.685 451.823,530.22 449.898,532.175C422.075,540.411 394.703,542.535 366.109,537.449C359.074,536.198 351.566,534.857 344.962,532.127C344.144,531.007 344.511,531.333 343.496,530.566C334.841,524.019 327.5,518.237 322.818,508.142L312.964,509.855C303.835,506.482 299.729,501.176 295.227,492.931L287.669,491.61C284.704,490.733 281.751,489.884 278.871,488.75C276.613,520.764 270.989,536.933 258.989,566.084C274.241,565.969 295.283,564.705 306.999,576.547C307.73,577.285 308.374,578.082 309.058,578.858C309.456,579.311 309.869,579.751 310.27,580.2C315.845,588.165 319.706,595.525 322.826,604.724C325.687,615.464 329.619,625.994 330.601,637.123C330.529,644.339 329.92,651.23 327.673,658.123C353.118,653.917 373.946,643.804 397.166,633.633C422.362,645.277 440.845,655.113 469.144,659.846C467.2,654.34 465.83,649.15 464.789,643.4ZM549.307,333.449C551.19,331.68 556.315,330.991 558.856,330.327C552.053,361.436 537.688,417.047 541.573,447.594C542.435,454.375 544.849,460.722 547.947,466.779C557.451,485.356 581.287,517.306 601.805,523.808C602.681,523.667 603.558,523.528 604.429,523.363C624.748,519.511 641.155,505.024 652.458,488.228C659.523,477.731 665.353,466.397 671.431,455.314C679.179,441.129 687.069,427.025 695.099,412.998C702.142,400.652 709.326,388.39 716.651,376.21C723.143,365.392 730.512,354.353 734.96,342.501C739.173,331.277 741.252,317.906 738.951,306.039C737.877,292.449 735.922,277.681 726.485,267.074C708.989,247.414 685.122,229.323 665.572,211.191C647.321,194.264 594.076,137.888 577.19,129.779C557.837,120.484 520.717,120.096 498.836,118.776C506.546,124.45 514.209,130.185 521.828,135.983C522.07,136.384 522.308,136.787 522.557,137.184C526.087,142.853 531.901,147.594 536.032,152.933C547.28,167.471 555.824,184.722 561.806,202.066C558.641,203.009 555.573,202.665 552.32,202.5C543.996,179.656 533.636,160.982 516.906,143.241C496.533,119.153 458.983,109.42 429.179,105.059C423.003,103.933 416.971,101.651 410.852,100.208C393.824,96.192 380.483,100.681 363.957,104.829C333.423,108.262 296.765,120.405 276.448,144.756C259.709,161.067 249.569,180.762 241.965,202.589C238.387,202.801 234.807,202.935 231.222,202.989C237.69,185.373 245.654,167.729 257.7,153.171C262.835,146.964 269.837,141.763 274.064,134.929L297.196,118.35C276.341,119.401 238.875,120.124 220.001,128.173C212.797,131.245 205.784,137.516 199.944,142.611C174.973,164.386 152.159,188.972 127.93,211.625C109.117,229.215 87.021,246.189 69.845,265.111C54.097,282.459 54.063,305.324 54.74,327.467C55.09,334.54 57.736,341.79 60.721,348.153C69.632,367.134 82.348,384.842 92.767,403.094L121.044,453.054C127.135,463.945 132.892,475.29 139.777,485.697C144.74,493.199 150.189,500.024 156.885,506.062C165.649,513.966 178.672,523.604 191.079,523.09C204.138,522.549 220.018,503.467 227.987,494.305C246.567,472.942 254.959,456.063 252.857,427.568C250.452,394.966 241.809,361.528 233.411,330.007C236.413,330.758 239.42,331.49 242.431,332.202C252.168,368.598 270.277,427.998 258.072,464.16C268.848,473.12 278.392,479.747 292.081,483.243C288.736,471.542 286.065,460.31 285.363,448.086C283.39,413.699 295.661,367.964 308.278,335.771C310.113,334.889 311.88,335.156 313.881,335.173C296.052,364.909 286.749,434.217 295.062,467.82C296.952,475.46 300.759,489.229 308.05,493.252C313.884,496.47 322.898,493.724 328.819,491.681C347.692,485.173 381.232,468.577 392.699,452.381C392.742,445.409 392.912,438.41 392.643,431.44C371.222,424.37 350.71,411.013 340.273,390.316C338.854,387.487 337.657,384.567 336.68,381.555C336.061,372.887 336.839,366.487 340.023,358.458C350.153,344.234 359.361,338.211 376.652,335.329C396.847,331.962 424.952,333.46 442.233,345.735C448.038,349.86 451.897,354.781 454.728,361.281C457.661,371.441 457.323,379.399 453.508,389.382C453.025,390.27 452.521,391.149 452.001,392.017C440.962,410.403 420.628,425.979 399.775,431.253C399.781,438.576 400.212,445.923 400.493,453.24C403.429,457.445 406.877,460.839 410.953,463.92C423.615,473.497 464.417,496.825 479.7,494.046C484.455,493.179 487.906,489.766 490.39,485.811C509.053,456.095 499.521,400.611 491.594,367.8C488.218,355.444 485.476,345.443 476.295,336.025C478.688,334.974 481.481,334.43 484.012,335.411C484.611,335.644 484.619,335.676 484.951,335.967C488.459,347.002 492.34,358.153 495.044,369.417C503.634,389.739 508.664,433.795 506.638,455.028C505.691,464.941 503.166,474.187 500.077,483.623C514.755,480.649 525.846,473.568 536.202,462.94C535.466,461.131 534.808,459.295 534.232,457.431C533.656,455.566 533.163,453.678 532.751,451.77C532.34,449.862 532.014,447.94 531.772,446.002C531.529,444.065 531.373,442.121 531.3,440.17C529.969,409.245 542.446,364.69 549.307,333.449ZM215.191,666.47C215.785,656.799 215.217,637.94 222.17,630.627C222.386,630.4 222.644,630.217 222.882,630.011L224.123,630.436C227.237,639.044 222.658,654.991 223.657,665.393C224.656,673.22 227.309,678.156 233.737,682.958C240.949,688.347 249.998,691.355 258.489,694.061C258.782,691.103 259.175,688.129 259.263,685.159C259.68,674.713 259.46,664.281 260.466,653.86C264.324,663.118 265.73,673.506 266.317,683.454C266.297,686.509 266.611,689.616 266.784,692.668C275.779,689.709 286.574,685.134 292.662,677.601C297.482,671.638 298.177,664.873 297.199,657.494C296.952,652.475 292.751,637.249 293.795,634.028C293.979,633.457 294.598,633.135 295,632.689C296.609,632.766 296.564,632.445 297.786,633.722C303.364,639.554 304.99,655.326 305.838,663.169L306.791,663.667C307.588,663.44 308.383,663.265 309.101,662.813C320.773,655.431 314.344,622.944 317.507,615.613C317.604,615.386 317.757,615.187 317.882,614.974L317.311,614.9L317.759,613.74C316.542,602.559 310.571,588.963 301.76,581.694C286.529,569.132 256.744,571.756 238.144,573.918C228.33,575.059 216.448,577.74 209.959,585.805C202.872,594.611 201.713,607.251 200.541,618.083C195.956,630.708 194.801,643.027 200.535,655.52C202.994,660.876 208.848,670.466 214.043,673.28C215.426,671.345 215.274,668.832 215.191,666.47ZM448.827,362.407C444.551,354.262 436.729,349.989 428.184,347.335C408.366,341.177 375.739,339.937 357.043,350.318C351.388,353.459 347.149,357.546 344.415,363.44C354.217,354.082 356.189,350.608 370.334,348.443C385.482,346.125 423.525,346.351 436.809,352.903C441.342,355.14 444.024,358.982 447.993,361.822L448.827,362.407ZM489.364,665.639C489.826,656.228 489.474,638.669 496.576,631.511C496.768,631.319 496.996,631.169 497.208,630.999L498.221,631.111C501.683,636.07 498.267,647.439 497.803,653.235C497.449,657.628 497.608,662.141 497.96,666.528C499.648,674.491 502.74,679.755 509.617,684.35C515.823,688.496 523.289,691.065 530.249,693.633L531.004,683.292C531.188,677.677 530.658,662.275 534.286,658.087C537.992,663.589 537.519,677.7 538.031,684.447C537.983,687.442 538.227,690.484 538.346,693.478C547.513,691.628 556.899,688.637 563.991,682.262C569.487,677.323 571.686,671.92 572.227,664.691C571.922,660.774 572.105,656.867 571.589,652.96C570.823,647.145 569.325,641.135 569.198,635.265C569.16,633.449 569.135,632.006 570.457,630.686C571.583,631.033 572.119,631.392 572.929,632.292C577.879,637.791 579.649,655.332 579.629,662.615L580.585,664.819L581.564,665.197C595.373,652.83 591.129,631.287 593.297,614.776L593.404,614.009C592.769,606.403 591.568,598.774 588.155,591.866C584.149,583.763 578.211,579.397 569.694,576.723C552.308,571.265 512.293,570.077 496.013,579.11C484.155,585.689 479.55,600.548 475.947,612.651C470.944,625.889 468.551,640.273 474.383,653.743C477.129,660.087 482.032,667.33 487.511,671.58L488.33,671.274L489.364,665.639ZM365.784,526.208C386.162,533.285 410.292,533.787 430.403,525.415C435.128,525 440.12,524.036 444.587,522.418C454.421,518.854 460,511.589 464.406,502.573L464.935,501.852C463.886,499.976 442.412,491.456 438.697,489.505C435.795,494.745 432.984,498.907 428.119,502.609C416.676,511.316 400.008,512.644 386.202,510.568C371.663,508.382 361.747,502.354 353.028,490.555C346.009,493.825 339.047,497.1 331.774,499.775L329.542,500.811C329.056,503.498 331.491,506.647 332.944,508.734C340.565,519.686 350.001,523.669 362.779,525.785C363.778,525.95 364.78,526.087 365.784,526.208Z"/>
            <g>
                <path d="M344.415,363.44C347.149,357.546 351.388,353.459 357.043,350.318C375.739,339.937 408.366,341.177 428.184,347.335C436.729,349.989 444.551,354.262 448.827,362.407L447.993,361.822C444.024,358.982 441.342,355.14 436.809,352.903C423.525,346.351 385.482,346.125 370.334,348.443C356.189,350.608 354.217,354.082 344.415,363.44Z" style="fill:rgb(253,253,253);fill-rule:nonzero;"/>
            </g>
            <path d="M365.979,495.125C363.424,492.758 360.952,490.446 358.73,487.749C371.928,479.665 386.273,472.383 396.288,460.331C406.734,471.534 419.501,478.703 432.42,486.687C427.98,492.415 423.672,496.983 416.787,499.775C415.163,492.483 413.937,481.093 407.222,476.712C401.205,472.787 393.034,474.769 386.551,476.294C382.323,477.288 377.776,478.462 375.373,482.358C375.262,484.369 375.083,486.092 374.592,488.06C371.263,490.16 368.732,492.358 365.979,495.125Z" style="fill:rgb(192,67,83);"/>
            <g>
                <path d="M365.979,495.125C368.732,492.358 371.263,490.16 374.592,488.06C375.083,486.092 375.262,484.369 375.373,482.358C377.776,478.462 382.322,477.287 386.551,476.294C393.034,474.768 401.205,472.788 407.222,476.712C413.936,481.093 415.163,492.483 416.787,499.775C414.137,500.532 411.464,501.193 408.766,501.756C394.405,504.689 378.398,503.236 365.979,495.125Z" style="fill:rgb(192,67,83);fill-rule:nonzero;"/>
            </g>
            <g>
                <path d="M320.625,560.45C320.503,560.94 320.372,561.425 320.256,561.916C319.073,566.962 321.022,574.987 316.571,578.574C314.801,580.003 312.432,580.049 310.27,580.2C309.869,579.751 309.456,579.311 309.058,578.858C308.374,578.082 307.73,577.285 306.999,576.547C295.283,564.705 274.241,565.969 258.989,566.084C270.989,536.933 276.613,520.764 278.871,488.75C281.751,489.884 284.704,490.733 287.669,491.61L295.227,492.931C299.729,501.176 303.835,506.482 312.964,509.855L322.818,508.142C327.5,518.237 334.841,524.019 343.496,530.566C344.511,531.333 344.144,531.007 344.962,532.127C336.618,544.747 333.769,555.056 334.544,570.181C334.694,573.109 335.38,578.122 334.671,580.922C334.237,582.634 332.6,583.244 331.231,584.009C324.92,576.154 322.952,570.093 320.625,560.45ZM473.204,560.949C470.998,569.826 468.585,576.653 462.919,583.956C461.988,583.491 460.47,582.713 459.98,581.74C456.745,575.3 462.697,548.712 449.898,532.175C451.823,530.22 454.375,528.685 456.538,526.977C462.986,521.885 467.01,516.565 470.937,509.399C476.061,509.688 481.091,510.052 485.925,507.931C492.615,504.995 495.512,499.106 497.963,492.659C500.819,492.446 503.651,491.981 506.485,491.584L513.584,489.969C518.357,521.267 522.428,537.821 535.938,566.646C516.137,566.604 499.537,566.013 483.848,579.963C481.516,579.617 479.374,579.198 477.124,578.489C472.491,574.473 473.975,566.68 473.204,560.949Z" style="fill:rgb(150,86,46);"/>
            </g>
            <path d="M300.331,336.601C302.896,335.849 305.69,334.615 308.278,335.771C295.661,367.964 283.39,413.699 285.363,448.086C286.065,460.31 288.736,471.542 292.081,483.243C278.392,479.747 268.848,473.12 258.072,464.16C270.277,427.998 252.168,368.598 242.431,332.202C248.225,333.184 254.312,334.061 259.862,336.049C273.253,337.611 286.894,337.406 300.331,336.601ZM532.363,335.587C536.386,334.759 545.732,331.831 549.307,333.449C542.446,364.69 529.969,409.245 531.3,440.17C531.373,442.121 531.529,444.065 531.772,446.002C532.014,447.94 532.34,449.862 532.751,451.77C533.163,453.678 533.656,455.566 534.232,457.431C534.808,459.295 535.466,461.131 536.202,462.94C525.846,473.568 514.755,480.649 500.077,483.623C503.166,474.187 505.691,464.941 506.638,455.028C508.664,433.795 503.634,389.739 495.044,369.417C492.34,358.153 488.459,347.002 484.951,335.967C487.151,336.055 488.618,336.186 490.703,337.018C504.14,337.505 519.286,338.901 532.363,335.587ZM54.74,327.467C54.063,305.324 54.097,282.459 69.845,265.111C87.021,246.189 109.117,229.215 127.93,211.625C152.159,188.972 174.973,164.386 199.944,142.611C205.784,137.516 212.797,131.245 220.001,128.173C238.875,120.124 276.341,119.401 297.196,118.35L274.064,134.929C269.837,141.763 262.835,146.964 257.7,153.171C245.654,167.729 237.69,185.373 231.222,202.989C224.62,203.169 196.932,202.075 192.793,205.687C187.208,210.566 189.64,231.138 189.753,238.243C193.061,238.622 198.864,238.575 201.133,241.343C210.088,252.275 194.08,312.717 233.411,330.007C241.809,361.528 250.452,394.966 252.857,427.568C254.959,456.063 246.567,472.942 227.987,494.305C220.018,503.467 204.138,522.549 191.079,523.09C178.672,523.604 165.649,513.966 156.885,506.062C150.189,500.024 144.74,493.199 139.777,485.697C132.892,475.29 127.135,463.945 121.044,453.054L92.767,403.094C82.348,384.842 69.632,367.134 60.721,348.153C57.736,341.79 55.09,334.54 54.74,327.467ZM521.828,135.983C514.209,130.185 506.546,124.45 498.836,118.776C520.717,120.096 557.837,120.484 577.19,129.779C594.076,137.888 647.321,194.264 665.572,211.191C685.122,229.323 708.989,247.414 726.485,267.074C735.922,277.681 737.877,292.449 738.951,306.039C741.252,317.906 739.173,331.277 734.96,342.501C730.512,354.353 723.143,365.392 716.651,376.21C709.326,388.39 702.142,400.652 695.099,412.998C687.069,427.025 679.179,441.129 671.431,455.314C665.353,466.397 659.523,477.731 652.458,488.228C641.155,505.024 624.748,519.511 604.429,523.363C603.558,523.528 602.681,523.667 601.805,523.808C581.287,517.306 557.451,485.356 547.947,466.779C544.849,460.722 542.435,454.375 541.573,447.594C537.688,417.047 552.053,361.436 558.856,330.327C562.504,328.389 566.088,326.441 569.317,323.833C592.045,305.465 590.28,264.804 592.637,238.26C597.134,237.363 602.026,237.199 606.605,236.758C606.628,226.539 606.267,216.144 604.738,206.035C597.143,204.03 564.26,203.627 561.806,202.066C555.824,184.722 547.28,167.471 536.032,152.933C531.901,147.594 526.087,142.853 522.557,137.184C522.308,136.787 522.07,136.384 521.828,135.983ZM506.579,202.565C501.055,203.094 495.568,203.34 490.021,203.496C484.887,203.411 479.623,203.623 474.534,204.327C457.256,206.697 442.522,207.973 427.794,218.045C422.6,217.344 417.315,216.791 412.205,215.628C412.304,207.851 410.077,198.841 411.59,191.215C412.292,187.682 413.88,184.289 414.888,180.831C415.737,177.917 415.945,175.413 415.263,172.446C413.7,165.646 408.186,160.472 406.454,153.549C405.372,149.222 405.481,143.906 407.378,139.805C408.32,137.767 410.219,135.995 411.686,134.33C420.8,123.992 422.438,116.118 429.179,105.059C458.983,109.42 496.533,119.153 516.906,143.241C533.636,160.982 543.996,179.656 552.32,202.5C537.529,201.376 521.389,201.436 506.579,202.565ZM283.881,202.1C269.98,201.691 255.839,201.647 241.965,202.589C249.569,180.762 259.709,161.067 276.448,144.756C296.765,120.405 333.423,108.262 363.957,104.829C368.016,111.621 371.409,118.848 375.846,125.396C379.039,130.114 383.246,134.418 386.129,139.297C386.938,140.665 387.122,141.913 387.304,143.449C387.349,143.822 387.408,144.192 387.451,144.564C388.812,156.595 379.986,166.424 377.106,177.693C381.959,192.473 382.105,200.446 381.139,215.681L367.974,217.613C344.414,201.267 311.231,203.813 283.881,202.1Z" style="fill:rgb(150,86,46);"/>
            <path d="M336.68,381.555C337.657,384.567 338.854,387.487 340.273,390.316C350.71,411.013 371.222,424.37 392.643,431.44C392.912,438.41 392.742,445.409 392.699,452.381C381.232,468.577 347.692,485.173 328.819,491.681C322.898,493.724 313.884,496.47 308.05,493.252C300.759,489.229 296.952,475.46 295.062,467.82C286.749,434.217 296.052,364.909 313.881,335.173C332.465,330.534 350.502,321.719 360.652,304.811C369.606,289.895 372.185,271.999 374.578,255.061C381.845,248.898 391.178,246.72 400.575,247.624C407.898,248.328 414.373,251.152 420.141,255.642C423.987,279.803 427.707,308.725 449.169,324.194C457.696,330.342 467.276,331.46 476.295,336.025C485.476,345.443 488.218,355.444 491.594,367.8C499.521,400.611 509.053,456.095 490.39,485.811C487.906,489.766 484.455,493.179 479.7,494.046C464.417,496.825 423.615,473.497 410.953,463.92C406.877,460.839 403.429,457.445 400.493,453.24C400.212,445.923 399.781,438.576 399.775,431.253C420.628,425.979 440.962,410.403 452.001,392.017C452.521,391.149 453.025,390.27 453.508,389.382C457.323,379.399 457.661,371.441 454.728,361.281C451.897,354.781 448.038,349.86 442.233,345.735C424.952,333.46 396.847,331.962 376.652,335.329C359.361,338.211 350.153,344.234 340.023,358.458C336.839,366.487 336.061,372.887 336.68,381.555Z" style="fill:rgb(253,253,253);"/>
            <path d="M561.806,202.066C564.26,203.627 597.143,204.03 604.738,206.035C606.267,216.144 606.628,226.539 606.605,236.758C602.026,237.199 597.134,237.363 592.637,238.26C590.28,264.804 592.045,305.465 569.317,323.833C566.088,326.441 562.504,328.389 558.856,330.327C556.315,330.991 551.19,331.68 549.307,333.449C545.732,331.831 536.386,334.759 532.363,335.587C519.286,338.901 504.14,337.505 490.703,337.018C488.618,336.186 487.151,336.055 484.951,335.967C484.619,335.676 484.611,335.644 484.012,335.411C481.481,334.43 478.688,334.974 476.295,336.025C467.276,331.46 457.696,330.342 449.169,324.194C427.707,308.725 423.987,279.803 420.141,255.642C414.373,251.152 407.898,248.328 400.575,247.624C391.178,246.72 381.845,248.898 374.578,255.061C372.185,271.999 369.606,289.895 360.652,304.811C350.502,321.719 332.465,330.534 313.881,335.173C311.88,335.156 310.113,334.889 308.278,335.771C305.69,334.615 302.896,335.849 300.331,336.601C286.894,337.406 273.253,337.611 259.862,336.049C254.312,334.061 248.225,333.184 242.431,332.202C239.42,331.49 236.413,330.758 233.411,330.007C194.08,312.717 210.088,252.275 201.133,241.343C198.864,238.575 193.061,238.622 189.753,238.243C189.64,231.138 187.208,210.566 192.793,205.687C196.932,202.075 224.62,203.169 231.222,202.989C234.807,202.935 238.387,202.801 241.965,202.589C255.839,201.647 269.98,201.691 283.881,202.1C311.231,203.813 344.414,201.267 367.974,217.613L381.139,215.681C391.139,214.728 402.244,214.348 412.205,215.628C417.315,216.791 422.6,217.344 427.794,218.045C442.522,207.973 457.256,206.697 474.534,204.327C479.623,203.623 484.887,203.411 490.021,203.496C495.568,203.34 501.055,203.094 506.579,202.565C521.389,201.436 537.529,201.376 552.32,202.5C555.573,202.665 558.641,203.009 561.806,202.066ZM525.957,215.851C510.313,214.904 457.432,215.384 445.644,225.58C437.591,232.545 436.602,244.587 436.179,254.541C435.623,267.565 436.689,281.467 441.36,293.746C443.662,298.293 445.803,303.04 448.77,307.188C456.113,317.492 471.042,321.625 482.912,323.672C490.726,325.022 498.701,325.16 506.48,326.387C506.744,326.52 506.994,326.681 507.269,326.786C516.166,330.172 540.515,324.48 549.286,320.899C559.545,316.709 567.662,309.701 571.941,299.269C574.761,292.395 579.219,272.938 576.555,266.54C577.02,254.794 579.999,233.266 572.324,223.839C565.923,215.98 554.306,216.895 545.184,216.067C538.778,216.295 532.363,216.027 525.957,215.851ZM594.821,216.439C589.754,216.19 584.848,216.331 579.785,216.652C581.713,220.033 584.108,222.944 586.548,225.955C588.909,226.737 590.979,226.29 593.156,225.161C595.324,224.037 597.573,222.263 598.203,219.807C598.517,218.581 598.052,218.267 597.514,217.225L594.821,216.439ZM205.282,216.439L202.589,217.225C202.052,218.267 201.587,218.581 201.9,219.807C202.53,222.263 204.779,224.037 206.947,225.161C209.125,226.29 211.194,226.737 213.555,225.955C215.995,222.944 218.391,220.033 220.318,216.652C215.256,216.331 210.349,216.19 205.282,216.439ZM320.387,217.63C314.897,217.793 309.472,217.381 303.997,216.996C289.81,214.484 242.247,214.695 230.711,222.737C224.268,227.228 221.401,234.563 220.29,242.086C217.915,258.17 218.869,278.975 222.786,294.709C224.963,299.502 227.071,304.913 230.06,309.242C245.115,323.084 272.473,326.072 292.001,324.979C292.47,324.953 292.938,324.902 293.408,324.865C293.714,324.991 294.015,325.135 294.325,325.248C300.564,327.521 321.522,321.05 327.857,318.29C340.422,312.819 349.331,303.908 354.358,291.059C356.393,285.858 360.1,272.832 357.885,267.819C358.637,266.109 358.711,264.347 358.807,262.492C359.383,251.477 360.408,235.941 352.39,227.368C345.223,219.705 330.49,218.065 320.387,217.63Z"/>
            <g>
                <path d="M205.282,216.439C210.349,216.19 215.256,216.331 220.318,216.652C218.391,220.033 215.995,222.944 213.555,225.955C211.194,226.737 209.125,226.29 206.947,225.161C204.779,224.037 202.53,222.263 201.9,219.807C201.587,218.581 202.052,218.267 202.589,217.225L205.282,216.439Z" style="fill:rgb(230,229,229);fill-rule:nonzero;"/>
            </g>
            <g>
                <path d="M594.821,216.439C589.754,216.19 584.848,216.331 579.785,216.652C581.713,220.033 584.108,222.944 586.548,225.955C588.909,226.737 590.979,226.29 593.156,225.161C595.324,224.037 597.573,222.263 598.203,219.807C598.517,218.581 598.052,218.267 597.514,217.225L594.821,216.439Z" style="fill:rgb(230,229,229);fill-rule:nonzero;"/>
            </g>
            <g>
                <path d="M357.885,267.819C360.1,272.832 356.393,285.858 354.358,291.059C349.331,303.908 340.422,312.819 327.857,318.29C321.522,321.05 300.564,327.521 294.325,325.248C294.015,325.135 293.714,324.991 293.408,324.865C315.056,306.121 337.196,287.611 357.885,267.819Z" style="fill:rgb(253,253,253);fill-rule:nonzero;"/>
            </g>
            <g>
                <path d="M576.555,266.54C579.219,272.938 574.761,292.395 571.941,299.269C567.662,309.701 559.545,316.709 549.286,320.899C540.515,324.48 516.166,330.172 507.269,326.786C506.994,326.681 506.744,326.52 506.48,326.387C528.519,311.339 556.492,285.24 576.555,266.54Z" style="fill:rgb(35,34,33);fill-rule:nonzero;"/>
            </g>
            <g>
                <path d="M222.786,294.709C218.869,278.975 217.915,258.17 220.29,242.086C221.401,234.563 224.268,227.228 230.711,222.737C242.247,214.695 289.81,214.484 303.997,216.996C276.343,242.289 249.273,268.194 222.786,294.709Z" style="fill:rgb(192,67,83);fill-rule:nonzero;"/>
            </g>
            <g>
                <path d="M441.36,293.746C436.689,281.467 435.623,267.565 436.179,254.541C436.602,244.587 437.591,232.545 445.644,225.58C457.432,215.384 510.313,214.904 525.957,215.851C514.693,226.421 502.856,236.356 491.415,246.734C474.56,262.224 457.875,277.894 441.36,293.746Z" style="fill:rgb(192,67,83);fill-rule:nonzero;"/>
            </g>
            <g>
                <path d="M545.184,216.067C554.306,216.895 565.923,215.98 572.324,223.839C579.999,233.266 577.02,254.794 576.555,266.54C556.492,285.24 528.519,311.339 506.48,326.387C498.701,325.16 490.726,325.022 482.912,323.672C471.042,321.625 456.113,317.492 448.77,307.188C445.803,303.04 443.662,298.293 441.36,293.746C457.875,277.894 474.56,262.224 491.415,246.734C502.856,236.356 514.693,226.421 525.957,215.851C532.363,216.027 538.778,216.295 545.184,216.067Z" style="fill:rgb(192,67,83);fill-rule:nonzero;"/>
            </g>
            <path d="M320.387,217.63C330.49,218.065 345.223,219.705 352.39,227.368C360.408,235.941 359.383,251.477 358.807,262.492C358.711,264.347 358.637,266.109 357.885,267.819C337.196,287.611 315.056,306.121 293.408,324.865C292.938,324.902 292.47,324.953 292.001,324.979C272.473,326.072 245.115,323.084 230.06,309.242C240.936,297.788 252.778,287.152 264.239,276.28L322.294,221.237L322.135,220.179L322.954,220.572L322.253,220.088L323.448,220.034L324.172,218.952L320.387,217.63ZM322.253,220.088L322.122,220.094L322.106,219.986L322.253,220.088ZM322.122,220.094L322.135,220.179L321.972,220.101L322.122,220.094Z" style="fill:rgb(192,67,83);"/>
            <g>
                <path d="M576.555,266.54C579.219,272.938 574.761,292.395 571.941,299.269C567.662,309.701 559.545,316.709 549.286,320.899C540.515,324.48 516.166,330.172 507.269,326.786C506.994,326.681 506.744,326.52 506.48,326.387C528.519,311.339 556.492,285.24 576.555,266.54Z" style="fill:rgb(253,253,253);fill-rule:nonzero;"/>
            </g>
            <g>
                <path d="M365.784,526.208C364.78,526.087 363.778,525.95 362.779,525.785C350.001,523.669 340.565,519.686 332.944,508.734C331.491,506.647 329.056,503.498 329.542,500.811L331.774,499.775C339.047,497.1 346.009,493.825 353.028,490.555C361.747,502.354 371.663,508.382 386.202,510.568C400.008,512.644 416.676,511.316 428.119,502.609C432.984,498.907 435.795,494.745 438.697,489.505C442.412,491.456 463.886,499.976 464.935,501.852L464.406,502.573C460,511.589 454.421,518.854 444.587,522.418C440.12,524.036 435.128,525 430.403,525.415C410.292,533.787 386.162,533.285 365.784,526.208ZM322.135,220.179L322.294,221.237L264.239,276.28C252.778,287.152 240.936,297.788 230.06,309.242C227.071,304.913 224.963,299.502 222.786,294.709C249.273,268.194 276.343,242.289 303.997,216.996C309.472,217.381 314.897,217.793 320.387,217.63L324.172,218.952L323.448,220.034L322.253,220.088L322.106,219.986L322.122,220.094L321.972,220.101L322.135,220.179ZM322.253,220.088L322.954,220.572L322.135,220.179L322.122,220.094L322.253,220.088ZM489.364,665.639L488.33,671.274L487.511,671.58C482.032,667.33 477.129,660.087 474.383,653.743C468.551,640.273 470.944,625.889 475.947,612.651C479.55,600.548 484.155,585.689 496.013,579.11C512.293,570.077 552.308,571.265 569.694,576.723C578.211,579.397 584.149,583.763 588.155,591.866C591.568,598.774 592.769,606.403 593.404,614.009C598.608,627.801 600.905,642.807 594.403,656.68C591.089,663.75 585.911,669.163 580.279,674.431L579.629,662.615C579.649,655.332 577.879,637.791 572.929,632.292C572.119,631.392 571.583,631.033 570.457,630.686C569.135,632.006 569.16,633.449 569.198,635.265C569.325,641.135 570.823,647.145 571.589,652.96C572.105,656.867 571.922,660.774 572.227,664.691C571.686,671.92 569.487,677.323 563.991,682.262C556.899,688.637 547.513,691.628 538.346,693.478C538.227,690.484 537.983,687.442 538.031,684.447C537.519,677.7 537.992,663.589 534.286,658.087C530.658,662.275 531.188,677.677 531.004,683.292L530.249,693.633C523.289,691.065 515.823,688.496 509.617,684.35C502.74,679.755 499.648,674.491 497.96,666.528C497.608,662.141 497.449,657.628 497.803,653.235C498.267,647.439 501.683,636.07 498.221,631.111L497.208,630.999C496.996,631.169 496.768,631.319 496.576,631.511C489.474,638.669 489.826,656.228 489.364,665.639ZM215.191,666.47C215.274,668.832 215.426,671.345 214.043,673.28C208.848,670.466 202.994,660.876 200.535,655.52C194.801,643.027 195.956,630.708 200.541,618.083C201.713,607.251 202.872,594.611 209.959,585.805C216.448,577.74 228.33,575.059 238.144,573.918C256.744,571.756 286.529,569.132 301.76,581.694C310.571,588.963 316.542,602.559 317.759,613.74C323.457,624.311 325.399,639.036 322.024,650.645C319.369,659.775 313.646,666.791 306.565,672.917L305.838,663.169C304.99,655.326 303.364,639.554 297.786,633.722C296.564,632.445 296.609,632.766 295,632.689C294.598,633.135 293.979,633.457 293.795,634.028C292.751,637.249 296.952,652.475 297.199,657.494C298.177,664.873 297.482,671.638 292.662,677.601C286.574,685.134 275.779,689.709 266.784,692.668C266.611,689.616 266.297,686.509 266.317,683.454C265.73,673.506 264.324,663.118 260.466,653.86C259.46,664.281 259.68,674.713 259.263,685.159C259.175,688.129 258.782,691.103 258.489,694.061C249.998,691.355 240.949,688.347 233.737,682.958C227.309,678.156 224.656,673.22 223.657,665.393C222.658,654.991 227.237,639.044 224.123,630.436L222.882,630.011C222.644,630.217 222.386,630.4 222.17,630.627C215.217,637.94 215.785,656.799 215.191,666.47ZM322.826,604.724C319.706,595.525 315.845,588.165 310.27,580.2C312.432,580.049 314.801,580.003 316.571,578.574C321.022,574.987 319.073,566.962 320.256,561.916C320.372,561.425 320.503,560.94 320.625,560.45C322.952,570.093 324.92,576.154 331.231,584.009C332.6,583.244 334.237,582.634 334.671,580.922C335.38,578.122 334.694,573.109 334.544,570.181C333.769,555.056 336.618,544.747 344.962,532.127C351.566,534.857 359.074,536.198 366.109,537.449C394.703,542.536 422.075,540.411 449.898,532.175C462.697,548.712 456.745,575.3 459.98,581.74C460.47,582.713 461.988,583.491 462.919,583.956C468.585,576.653 470.998,569.826 473.204,560.949C473.975,566.68 472.491,574.473 477.124,578.489C479.374,579.198 481.516,579.617 483.848,579.963C477.268,587.451 473.708,595.591 471.296,605.214L471.134,607.705C466.46,620.194 464.11,630.013 464.789,643.4C465.83,649.15 467.2,654.34 469.144,659.846C440.845,655.113 422.362,645.277 397.166,633.633C373.946,643.804 353.118,653.917 327.673,658.123C329.92,651.23 330.529,644.339 330.601,637.123C329.619,625.994 325.687,615.464 322.826,604.724ZM363.957,104.829C380.483,100.681 393.825,96.19 410.852,100.208C416.971,101.651 423.003,103.933 429.179,105.059C422.438,116.118 420.802,123.994 411.686,134.33C410.219,135.995 408.32,137.766 407.378,139.805C405.48,143.905 405.371,149.222 406.454,153.549C408.185,160.473 413.702,165.646 415.263,172.446C415.945,175.412 415.737,177.917 414.888,180.831C413.881,184.289 412.292,187.682 411.59,191.215C410.077,198.841 412.304,207.851 412.205,215.628C402.244,214.348 391.139,214.728 381.139,215.681C382.105,200.446 381.959,192.473 377.106,177.693C379.986,166.424 388.812,156.595 387.451,144.564C387.408,144.192 387.349,143.822 387.304,143.449C387.122,141.913 386.938,140.665 386.129,139.297C383.246,134.418 379.039,130.114 375.846,125.396C371.409,118.848 368.016,111.621 363.957,104.829ZM525.957,215.851C532.363,216.027 538.778,216.295 545.184,216.067L546.041,217.211C541.533,223.788 530.153,232.556 523.97,238.305L471.9,286.437C464.301,293.397 456.095,299.979 448.77,307.188C445.803,303.04 443.662,298.293 441.36,293.746C457.875,277.894 474.56,262.224 491.415,246.734C502.856,236.356 514.693,226.421 525.957,215.851Z" style="fill:rgb(253,253,253);"/>
            </g>
        </g>
    </g>
    <path d="M361.67,400.983C364.889,396.464 368.656,392.503 374.332,391.166C376.698,390.608 379.152,390.766 381.187,392.228C383.229,393.694 384.089,395.993 384.25,398.412C384.748,405.908 379.84,412.563 375.26,418.01C363.703,411.601 361.396,401.499 361.396,401.499L361.67,400.983Z" style="fill:rgb(253,253,253);stroke:black;stroke-width:1px;"/>
    <path d="M431.918,401.349L431.998,401.499C431.998,401.499 429.666,411.708 417.949,418.112C417.754,418.218 417.537,418.259 417.3,418.241C417.441,418.168 417.583,418.094 417.725,418.02C413.686,412.582 409.606,405.5 410.367,398.439C410.627,396.041 411.584,393.738 413.643,392.336C415.369,391.159 417.042,391.074 419.045,391.403C424.654,392.327 428.536,397.36 431.585,401.667C431.696,401.561 431.807,401.455 431.918,401.349Z" style="fill:rgb(253,253,253);stroke:black;stroke-width:1px;"/>
</svg>
