<?xml version="1.0" encoding="UTF-8" standalone="no"?>
<!--
  Wing (left) design template — true-to-size at 1:1 mm (95.92 x 239.79mm canvas;
  the design face itself is 239.79 x 95.92mm, shown rotated to match the app's view).
  The grey shape is the main flat region of the wing's OUTER face — the face that prints
  upward. Load with the Wing (left) assembly kind at Scale 100%, Offset 0/0 and it lands
  centered on the face. The design is cut through onto the whole main face (not clipped to
  this outline); a raised step and the steeply-curved edges of the wing are beyond a flat
  projection's reach, so keep key detail within this region.

  GENERATED by scripts/gen-templates.mjs from public/stl/wing-left.3mf — do not hand-edit;
  re-run "npx vite-node scripts/gen-templates.mjs" to regenerate.

  Any gaps punched in the grey are real openings.
-->
<svg width="95.92mm" height="239.79mm" viewBox="0 0 95.92 239.79" version="1.1"
     xmlns="http://www.w3.org/2000/svg">
  <path d="M94.86 92.44 L94.21 92.55 L93.56 92.49 L92.95 92.26 L92.42 91.88 L92.01 91.38 L91.74 90.78 L91.06 88.58 L91.01 88.47 L90.94 88.38 L90.85 88.3 L90.75 88.25 L90.64 88.23 L90.52 88.23 L90.41 88.26 L90.3 88.31 L88.46 89.55 L87.95 89.82 L87.38 89.96 L86.8 89.96 L86.23 89.84 L85.71 89.58 L85.26 89.21 L84.91 88.74 L84.67 88.21 L82.35 80.61 L82.25 80.04 L82.28 79.46 L82.44 78.9 L82.73 78.39 L83.13 77.97 L83.62 77.65 L84.16 77.45 L84.74 77.38 L86.96 77.38 L87.08 77.37 L87.19 77.33 L87.28 77.26 L87.36 77.18 L87.42 77.08 L87.45 76.96 L87.46 76.85 L87.44 76.73 L86.76 74.53 L86.66 73.88 L86.72 73.23 L86.95 72.62 L87.33 72.09 L87.83 71.68 L88.42 71.41 L95.92 69.11 L95.92 0 L80.77 3.94 L70.9 6.69 L61.13 9.79 L51.48 13.22 L50.73 13.53 L49.98 13.85 L49.23 14.16 L43.27 20.61 L37.64 27.36 L32.35 34.38 L27.43 41.66 L22.88 49.18 L18.72 56.92 L14.95 64.86 L11.59 72.98 L8.64 81.26 L6.12 89.68 L4.02 98.21 L2.35 106.84 L1.13 115.54 L0.34 124.29 L0 133.08 L0.1 141.86 L0.65 150.64 L1.63 159.37 L3.06 168.04 L4.92 176.63 L7.22 185.11 L9.94 193.47 L13.07 201.68 L16.62 209.72 L20.57 217.57 L24.91 225.21 L29.63 232.62 L34.72 239.79 L70.23 204.28 L73.02 201.76 L76.04 199.54 L79.27 197.64 L82.68 196.07 L86.23 194.86 L89.88 194.01 L91.69 190.8 L93.2 187.43 L94.38 183.94 L95.24 180.35 L95.75 176.7 L95.92 173.02 L95.92 92.12 Z" fill="#bcbcbc" fill-rule="evenodd" />

</svg>
